HIERARCHY
ROOT root
{
	OFFSET 0.000000 0.000000 0.000000
	CHANNELS 6 Xposition Yposition Zposition Zrotation Yrotation Xrotation
	JOINT lhip
	{
		OFFSET 0.058581 -0.082280 -0.017664
		CHANNELS 3 Zrotation Yrotation Xrotation
		JOINT lknee
		{
			OFFSET 0.043451 -0.386469 0.008037
			CHANNELS 3 Zrotation Yrotation Xrotation
			JOINT lankle
			{
				OFFSET -0.014790 -0.426874 -0.037428
				CHANNELS 3 Zrotation Yrotation Xrotation
				JOINT ltoe
				{
					OFFSET 0.041054 -0.060286 0.122042
					CHANNELS 3 Zrotation Yrotation Xrotation
					End Site
					{
						OFFSET 0.000000 0.000000 0.000000
					}
				}
			}
		}
	}
	JOINT rhip
	{
		OFFSET -0.060310 -0.090513 -0.013543
		CHANNELS 3 Zrotation Yrotation Xrotation
		JOINT rknee
		{
			OFFSET -0.043257 -0.383688 -0.004843
			CHANNELS 3 Zrotation Yrotation Xrotation
			JOINT rankle
			{
				OFFSET 0.019056 -0.420046 -0.034562
				CHANNELS 3 Zrotation Yrotation Xrotation
				JOINT rtoe
				{
					OFFSET -0.034840 -0.062106 0.130323
					CHANNELS 3 Zrotation Yrotation Xrotation
					End Site
					{
						OFFSET 0.000000 0.000000 0.000000
					}
				}
			}
		}
	}
	JOINT lowerback
	{
		OFFSET 0.004439 0.124404 -0.038385
		CHANNELS 3 Zrotation Yrotation Xrotation
		JOINT upperback
		{
			OFFSET 0.004488 0.137956 0.026820
			CHANNELS 3 Zrotation Yrotation Xrotation
			JOINT chest
			{
				OFFSET -0.002265 0.056032 0.002855
				CHANNELS 3 Zrotation Yrotation Xrotation
				JOINT lowerneck
				{
					OFFSET -0.013390 0.211636 -0.033468
					CHANNELS 3 Zrotation Yrotation Xrotation
					JOINT upperneck
					{
						OFFSET 0.010113 0.088937 0.050410
						CHANNELS 3 Zrotation Yrotation Xrotation
						End Site
						{
							OFFSET 0.000000 0.000000 0.000000
						}
					}
				}
				JOINT lclavicle
				{
					OFFSET 0.071702 0.114000 -0.018898
					CHANNELS 3 Zrotation Yrotation Xrotation
					JOINT lshoulder
					{
						OFFSET 0.122921 0.045205 -0.019046
						CHANNELS 3 Zrotation Yrotation Xrotation
						JOINT lelbow
						{
							OFFSET 0.255332 -0.015649 -0.022946
							CHANNELS 3 Zrotation Yrotation Xrotation
							JOINT lwrist
							{
								OFFSET 0.265709 0.012698 -0.007375
								CHANNELS 3 Zrotation Yrotation Xrotation
								End Site
								{
									OFFSET 0.000000 0.000000 0.000000
								}
							}
						}
					}
				}
				JOINT rclavicle
				{
					OFFSET -0.082954 0.112472 -0.023707
					CHANNELS 3 Zrotation Yrotation Xrotation
					JOINT rshoulder
					{
						OFFSET -0.113228 0.046853 -0.008472
						CHANNELS 3 Zrotation Yrotation Xrotation
						JOINT relbow
						{
							OFFSET -0.260127 -0.014369 -0.031269
							CHANNELS 3 Zrotation Yrotation Xrotation
							JOINT rwrist
							{
								OFFSET -0.269108 0.006794 -0.006027
								CHANNELS 3 Zrotation Yrotation Xrotation
								End Site
								{
									OFFSET 0.000000 0.000000 0.000000
								}
							}
						}
					}
				}
			}
		}
	}
}
MOTION
Frames: 14
Frame Time: 0.033333
-0.262904 0.049995 1.021527 91.059619 4.838999 83.788125 9.008623 9.230352 14.347155 -3.692960 8.605206 -3.350458 0.740010 14.010256 -10.523173 0.000000 -0.000000 0.000000 2.934783 -0.161306 0.765547 1.181046 -3.585400 14.127358 1.431150 -4.069134 -11.796543 0.000000 -0.000000 0.000000 -0.250203 -3.383099 1.961013 2.259623 -4.749614 6.136376 -0.945699 -1.960579 1.521444 4.966059 -14.135162 4.125368 9.872999 -19.877279 1.718550 -21.933238 -0.545833 5.056162 -61.649139 -7.751321 11.824211 4.723132 -20.464243 13.953089 -6.759399 -8.479586 -5.719051 19.131777 0.462152 4.538184 61.459319 2.216441 10.907233 -9.463357 25.992060 11.693924 7.395097 2.929842 -3.714491 
-0.261917 0.048621 1.021467 91.579778 4.758535 83.804890 9.052717 9.078121 14.259329 -3.680355 8.390319 -3.196519 0.688894 13.865632 -10.518980 0.000000 -0.000000 0.000000 2.917284 -0.321942 0.885278 1.206705 -3.731810 14.156244 1.295847 -4.220890 -11.944820 0.000000 -0.000000 0.000000 -0.191599 -3.375381 1.880024 2.214604 -4.755987 6.008734 -0.974665 -1.900922 1.587155 4.950209 -14.585959 4.126902 9.793105 -20.260692 2.020470 -21.793861 -0.386256 5.128079 -61.795030 -7.341235 11.740462 4.861867 -20.436238 14.018384 -6.343494 -8.461571 -6.215726 18.952129 0.547761 4.559982 61.609352 2.241440 11.127619 -9.391693 26.759006 12.337773 7.093795 3.012801 -4.020649 
-0.261249 0.047199 1.021541 92.102314 4.676407 83.906248 9.146098 9.142400 14.004799 -3.661462 8.636253 -2.960843 0.444184 13.046965 -10.551915 0.000000 -0.000000 0.000000 2.937117 -0.208699 0.818516 1.035487 -4.548838 14.312275 1.228761 -3.879486 -12.039431 0.000000 -0.000000 0.000000 -0.154723 -3.357277 1.429716 2.209942 -4.752337 6.632795 -1.079358 -1.756388 1.196195 5.020914 -14.828380 4.151950 9.946875 -20.914748 2.216277 -21.815669 -0.319353 4.907054 -61.850527 -6.883459 11.377490 5.682308 -20.442119 12.528968 -10.189500 -8.445513 -4.911810 18.429149 0.426568 4.189767 62.274863 2.999137 9.716866 -11.375334 27.750282 6.832821 15.265280 2.908673 -11.156075 
-0.260331 0.045692 1.021651 92.919659 4.585749 83.920546 9.195149 8.962342 13.893191 -3.631066 8.271746 -2.878491 0.364425 12.828105 -10.489140 0.000000 -0.000000 0.000000 2.916846 -0.393075 0.998202 1.068468 -4.836985 14.266142 1.119822 -4.139668 -12.171753 0.000000 -0.000000 0.000000 -0.143704 -3.291911 1.252902 2.209711 -4.737831 6.628908 -1.139777 -1.730945 1.261017 5.161845 -15.302895 4.234147 9.961955 -21.533288 2.413604 -21.766215 0.012976 4.937103 -61.768420 -6.770595 11.253696 5.679638 -20.671859 12.377082 -10.102521 -8.489615 -5.239079 18.344346 0.387014 4.072067 62.411091 3.177739 9.861395 -11.447444 28.484541 6.922570 15.024962 3.009133 -11.156236 
-0.259731 0.044863 1.021715 93.388941 4.513691 83.906218 9.200684 8.856199 13.879470 -3.616481 8.037702 -2.872971 0.312323 12.718968 -10.451647 0.000000 -0.000000 0.000000 2.877511 -0.502805 1.132347 1.089962 -5.002994 14.235762 1.069049 -4.281246 -12.256151 0.000000 -0.000000 0.000000 -0.157324 -3.223099 1.171949 2.206620 -4.716552 6.636098 -1.156450 -1.717785 1.293174 5.229831 -15.560749 4.286051 9.983615 -21.873633 2.474305 -21.719840 0.202446 4.942267 -61.734045 -6.720688 11.220969 5.650152 -20.935798 12.335465 -9.996826 -8.509790 -5.553206 18.307081 0.357806 3.997362 62.466475 3.276335 9.949778 -11.446694 28.865118 6.986877 14.731363 3.029460 -11.128307 
-0.258894 0.043832 1.021833 93.959392 4.389013 83.875669 9.175745 8.728873 13.915874 -3.616137 7.738577 -2.922470 0.244849 12.587029 -10.399070 0.000000 -0.000000 0.000000 2.802069 -0.615406 1.300681 1.097920 -5.215852 14.229575 1.012437 -4.459504 -12.377009 0.000000 -0.000000 0.000000 -0.205345 -3.120256 1.073925 2.192959 -4.658599 6.660148 -1.170232 -1.678163 1.311695 5.305017 -15.883483 4.346169 10.030962 -22.329236 2.560654 -21.664921 0.460504 4.946426 -61.688088 -6.678240 11.191007 5.640939 -21.408208 12.241879 -9.894699 -8.525324 -6.000794 18.295572 0.338409 3.927909 62.502171 3.381495 10.051586 -11.396882 29.299007 7.042916 14.428024 3.090117 -11.158409 
-0.258229 0.042875 1.021943 94.546745 4.273148 83.854048 9.151776 8.597720 13.908964 -3.612564 7.448151 -2.946525 0.181506 12.435262 -10.334574 0.000000 -0.000000 0.000000 2.742080 -0.716867 1.431913 1.082931 -5.462831 14.243488 0.958341 -4.639670 -12.490692 0.000000 -0.000000 0.000000 -0.242307 -3.034130 1.025193 2.178088 -4.598041 6.645993 -1.183521 -1.629549 1.316092 5.361973 -16.220030 4.393348 10.090234 -22.793026 2.659857 -21.637843 0.693730 4.954501 -61.625477 -6.652177 11.174644 5.669688 -21.997328 12.138300 -9.834435 -8.591150 -6.347171 18.271471 0.351494 3.876576 62.540158 3.445012 10.141831 -11.285079 29.641905 7.155568 14.277905 3.224548 -11.218729 
-0.257721 0.041991 1.022038 95.114779 4.158826 83.832733 9.117063 8.477507 13.883486 -3.601472 7.193188 -2.964687 0.121449 12.265659 -10.257640 0.000000 -0.000000 0.000000 2.665962 -0.833051 1.551117 1.074125 -5.719887 14.249193 0.914246 -4.778469 -12.590695 0.000000 -0.000000 0.000000 -0.253028 -2.942744 1.010681 2.144273 -4.531023 6.629004 -1.206992 -1.572332 1.316093 5.420956 -16.587671 4.427528 10.177538 -23.229432 2.692648 -21.607943 0.885947 4.929780 -61.562962 -6.654069 11.176408 5.703898 -22.572292 12.043733 -9.803585 -8.714909 -6.622084 18.220983 0.397381 3.833278 62.608866 3.484213 10.215411 -11.168616 29.892958 7.332596 14.329069 3.386430 -11.172211 
-0.257331 0.041176 1.022129 95.654773 4.047640 83.816024 9.066714 8.345057 13.837806 -3.582868 6.971023 -2.967604 0.066815 12.106503 -10.186267 0.000000 -0.000000 0.000000 2.578185 -0.938835 1.669985 1.082571 -5.973117 14.225761 0.870374 -4.909483 -12.674270 0.000000 -0.000000 0.000000 -0.242939 -2.827469 1.006046 2.099595 -4.467424 6.616511 -1.227517 -1.516971 1.309627 5.465685 -16.973160 4.461757 10.269411 -23.615373 2.659395 -21.583726 1.038422 4.886424 -61.521680 -6.691940 11.182168 5.771214 -23.087063 11.920890 -9.797403 -8.845624 -6.846172 18.146359 0.465935 3.821673 62.690455 3.485700 10.284687 -11.055116 30.104287 7.518157 14.461700 3.500651 -11.064080 
-0.256954 0.040214 1.022259 96.265085 3.924995 83.793467 9.005685 8.160983 13.753343 -3.558603 6.704660 -2.911461 0.017342 11.963093 -10.136781 0.000000 -0.000000 0.000000 2.489780 -1.071956 1.789260 1.079238 -6.250994 14.214831 0.824404 -5.069940 -12.773372 0.000000 -0.000000 0.000000 -0.209067 -2.669621 0.994656 2.054621 -4.368831 6.632089 -1.253718 -1.431125 1.320058 5.504259 -17.386682 4.473777 10.428795 -24.061937 2.528737 -21.548574 1.211091 4.794768 -61.516553 -6.778639 11.222215 5.871553 -23.656209 11.832612 -9.824949 -8.911030 -7.152421 18.093518 0.489352 3.806517 62.740576 3.431197 10.360034 -10.867192 30.371894 7.790864 14.459835 3.609966 -10.992613 
-0.256829 0.039509 1.022337 96.715139 3.832032 83.762391 8.958587 8.006875 13.661108 -3.545195 6.504325 -2.803646 -0.008890 11.864166 -10.115961 0.000000 -0.000000 0.000000 2.428621 -1.159541 1.857311 1.058913 -6.463371 14.252401 0.791213 -5.195204 -12.852502 0.000000 -0.000000 0.000000 -0.186778 -2.572118 1.022465 2.029289 -4.293674 6.655370 -1.267081 -1.356926 1.321788 5.517073 -17.645269 4.490977 10.543055 -24.355993 2.400403 -21.511805 1.311286 4.733887 -61.549082 -6.832083 11.263663 5.965609 -24.072637 11.787034 -9.826592 -8.956434 -7.410171 18.059098 0.527334 3.821418 62.787066 3.391044 10.401881 -10.772210 30.523142 7.992622 14.441261 3.686318 -10.895493 
-0.256855 0.038842 1.022413 97.150378 3.738031 83.709286 8.910654 7.858323 13.570923 -3.530465 6.317566 -2.673272 -0.045563 11.762377 -10.095682 0.000000 -0.000000 0.000000 2.370794 -1.237726 1.931514 1.026983 -6.672194 14.304211 0.763555 -5.321829 -12.926058 0.000000 -0.000000 0.000000 -0.175396 -2.501773 1.090053 2.001275 -4.250844 6.701895 -1.275032 -1.303078 1.344013 5.541916 -17.843359 4.478148 10.665220 -24.520261 2.217142 -21.481791 1.410364 4.669948 -61.579134 -6.854295 11.280666 6.076659 -24.496207 11.762047 -9.842612 -9.023880 -7.573979 18.013290 0.557292 3.790121 62.849287 3.382976 10.433118 -10.695910 30.633130 8.245784 14.613590 3.693643 -10.693045 
-0.257060 0.038273 1.022498 97.556737 3.568035 83.580473 8.786652 7.843876 13.575234 -3.474636 5.895259 -2.583803 -0.116989 11.829308 -10.058831 0.000000 -0.000000 0.000000 2.225726 -1.434372 2.046570 1.005355 -6.648805 14.398819 0.828239 -5.522355 -13.011649 0.000000 -0.000000 0.000000 -0.249584 -2.396567 1.368896 1.941733 -4.160171 6.491714 -1.280707 -1.382972 1.518102 5.698777 -18.074429 4.426347 10.607970 -24.586406 2.061193 -21.421694 1.522207 4.706283 -61.462286 -6.808838 11.387730 5.836827 -25.093334 12.043195 -8.641757 -8.561139 -8.308282 17.977149 0.690243 3.669387 62.926829 3.177949 10.889956 -10.005322 31.152418 8.030376 12.556673 3.119300 -12.553246 
-0.257374 0.037718 1.022514 97.907582 3.477860 83.538114 8.737418 7.768835 13.538096 -3.459585 5.735956 -2.586870 -0.177973 11.740837 -9.986514 0.000000 -0.000000 0.000000 2.190882 -1.488913 2.053952 0.944456 -6.798168 14.501696 0.811201 -5.648704 -13.070919 0.000000 -0.000000 0.000000 -0.250769 -2.352240 1.461923 1.924652 -4.112593 6.532606 -1.289310 -1.352607 1.564972 5.751569 -18.232147 4.409235 10.718908 -24.727980 1.829265 -21.438524 1.617054 4.680976 -61.423054 -6.848969 11.394095 5.857154 -25.244029 12.005307 -8.558458 -8.742851 -8.513590 17.968624 0.698845 3.629427 62.941684 3.126532 10.972539 -9.815085 31.224913 8.219471 12.458493 3.139761 -12.687442 
